<svg xmlns="http://www.w3.org/2000/svg" width="1726" height="226"><path d="M0 0 C9.51876024 8.11204691 17.21250425 17.42762744 21.6875 29.1875 C23.66884038 26.30807555 23.66884038 26.30807555 25.09765625 23.62109375 C34.47529511 6.61719539 48.34599012 -5.52432803 66.78125 -11.87890625 C89.31061319 -18.28492024 113.54505602 -16.10034819 134.3046875 -5.47265625 C150.84128137 3.82595806 161.1807674 18.42658228 166.65234375 36.34765625 C171.4290017 55.16812881 169.89132657 76.94218227 160.6875 94.1875 C156.54374808 101.10287347 151.9156418 107.71746863 147.375 114.375 C144.8132656 118.16497772 142.25859228 121.95970108 139.703125 125.75390625 C139.08054306 126.67600891 138.45796112 127.59811157 137.81651306 128.54815674 C133.92072135 134.32508829 130.0949226 140.13309489 126.38378906 146.03076172 C125.20995305 147.88732579 124.0164156 149.73157666 122.80371094 151.56298828 C119.664113 156.32570826 116.7136093 161.07955233 114.03125 166.11279297 C97.04287204 197.98867457 97.04287204 197.98867457 87.24060059 202.25164795 C75.39734375 205.54733526 62.537678 203.5742428 50.6875 201.1875 C51.88522516 197.98666492 53.17472879 195.2235896 55.12890625 192.421875 C55.62124756 191.7098291 56.11358887 190.9977832 56.62084961 190.26416016 C57.15846924 189.4963623 57.69608887 188.72856445 58.25 187.9375 C59.43017799 186.23211016 60.60983899 184.52636247 61.7890625 182.8203125 C62.41973633 181.91055664 63.05041016 181.00080078 63.70019531 180.06347656 C67.20088059 174.99737429 70.66280678 169.90495306 74.125 164.8125 C74.83591797 163.76747314 75.54683594 162.72244629 76.27929688 161.64575195 C83.14725545 151.53641011 89.93259513 141.37264269 96.6875 131.1875 C96.11418945 131.14262451 95.54087891 131.09774902 94.95019531 131.05151367 C74.46136059 129.4016406 56.52180432 126.33403932 40.6875 112.1875 C40.00171875 111.58292969 39.3159375 110.97835937 38.609375 110.35546875 C32.07578211 104.23334259 27.54971472 96.9843397 23.58496094 89.00585938 C23.22851501 88.28958374 22.87206909 87.57330811 22.50482178 86.83532715 C22.23510559 86.29154419 21.9653894 85.74776123 21.6875 85.1875 C21.27314697 86.09814209 20.85879395 87.00878418 20.43188477 87.94702148 C14.67625547 100.19916545 7.28423867 111.12216779 -0.375 122.25 C-2.3483836 125.14133531 -4.31812862 128.03512633 -6.28767395 130.92907715 C-7.57058241 132.8136957 -8.85457291 134.69757817 -10.13969421 136.58068848 C-14.59141003 143.10706371 -18.96744364 149.67356419 -23.25 156.3125 C-29.47959881 165.95147179 -35.82302299 175.51228619 -42.1875 185.0625 C-42.68547089 185.81065979 -43.18344177 186.55881958 -43.69650269 187.32965088 C-45.10624947 189.44720992 -46.51765258 191.56365375 -47.9296875 193.6796875 C-48.35805405 194.32323181 -48.78642059 194.96677612 -49.22776794 195.62982178 C-52.19723503 200.07223503 -52.19723503 200.07223503 -53.3125 201.1875 C-56.1968382 201.27615208 -59.05712158 201.30271296 -61.94140625 201.28515625 C-63.23775246 201.28303383 -63.23775246 201.28303383 -64.56028748 201.28086853 C-67.33189292 201.27525239 -70.1034188 201.26269719 -72.875 201.25 C-74.7493478 201.24498708 -76.62369685 201.24042381 -78.49804688 201.23632812 C-83.10289544 201.22527772 -87.70768421 201.2080023 -92.3125 201.1875 C-90.82649398 198.0454002 -89.07498795 195.20897019 -87.14453125 192.3203125 C-86.50628418 191.36358643 -85.86803711 190.40686035 -85.21044922 189.42114258 C-84.52225098 188.39529053 -83.83405273 187.36943848 -83.125 186.3125 C-82.41102051 185.24475342 -81.69704102 184.17700684 -80.96142578 183.0769043 C-75.63636689 175.12687423 -70.25610291 167.21521212 -64.85253906 159.31835938 C-58.25401644 149.66490006 -51.77598864 139.9317102 -45.3125 130.1875 C-46.30507812 130.22230469 -47.29765625 130.25710937 -48.3203125 130.29296875 C-69.68907195 130.8147394 -89.17422668 124.45250896 -104.9296875 109.66015625 C-119.81834636 94.21012173 -124.86920273 75.78157564 -124.72998047 54.86767578 C-124.22420852 35.44794153 -117.94950979 18.61968914 -104.09375 4.7734375 C-93.73975069 -4.85345512 -81.10817179 -10.85780296 -67.3125 -13.8125 C-66.46171875 -13.99554688 -65.6109375 -14.17859375 -64.734375 -14.3671875 C-41.60811648 -17.37676909 -18.85138221 -14.35605261 0 0 Z M-83.3125 29.1875 C-91.66531341 40.52767256 -93.74064415 52.40409493 -92.3125 66.1875 C-89.89644989 78.34965056 -83.12069328 86.86795278 -73.3125 94.1875 C-62.23630371 100.65339697 -49.43787414 101.79335557 -37.0625 98.9375 C-26.86359862 96.05952653 -17.61608908 91.25232174 -12.22265625 81.6953125 C-5.6779015 69.18611003 -3.7099333 55.33925909 -7.875 41.5625 C-11.84915744 31.5993151 -19.33002221 23.34304285 -29.15625 18.90234375 C-47.6039839 11.98444354 -69.43821981 13.98235361 -83.3125 29.1875 Z M58.6875 30.1875 C50.96595994 39.90169556 49.0561964 51.70422205 49.8671875 63.88671875 C51.44006343 73.8536162 56.66041888 84.43306947 64.6484375 90.734375 C76.21111022 98.92967286 88.78117106 101.9167182 102.81640625 99.69140625 C114.34206594 97.08598893 123.71741953 91.88212884 130.375 82 C137.15698244 70.70169739 138.43837562 58.70169204 136.06640625 45.8125 C133.10207995 35.69426622 127.17354004 26.85712777 118.0546875 21.3984375 C97.60346235 10.93658965 74.79216697 13.34380434 58.6875 30.1875 Z " fill="#040909" transform="translate(1557.3125,20.8125)"></path><path d="M0 0 C9.50051695 7.53582081 20.74434084 16.72623097 26.0703125 27.875 C25.7962271 30.3755305 25.50061293 31.51243012 23.55493164 33.15185547 C22.91160889 33.51166504 22.26828613 33.87147461 21.60546875 34.2421875 C20.89213379 34.65033691 20.17879883 35.05848633 19.44384766 35.47900391 C18.29988525 36.10814697 18.29988525 36.10814697 17.1328125 36.75 C15.57913449 37.62969177 14.02574791 38.50989845 12.47265625 39.390625 C11.71710449 39.81408203 10.96155273 40.23753906 10.18310547 40.67382812 C6.7086594 42.64913142 3.33310315 44.78243865 -0.046875 46.9140625 C-1.9296875 47.875 -1.9296875 47.875 -4.9296875 47.875 C-6.5078125 45.93359375 -6.5078125 45.93359375 -8.1796875 43.3125 C-18.15820644 28.5526074 -33.65680658 20.00824072 -50.9921875 16.3828125 C-72.96965022 13.54841751 -94.79574216 16.55464831 -112.875 30.078125 C-115.35431292 32.24657606 -117.65321796 34.49580169 -119.9296875 36.875 C-120.62320313 37.54917969 -121.31671875 38.22335938 -122.03125 38.91796875 C-133.78584626 51.01294907 -140.19688459 68.14266688 -140.9296875 84.875 C-140.98125 85.66390625 -141.0328125 86.4528125 -141.0859375 87.265625 C-141.75972313 106.01932492 -136.05144282 124.50464614 -123.9296875 138.875 C-123.35605469 139.42671875 -122.78242188 139.9784375 -122.19140625 140.546875 C-120.9296875 141.875 -120.9296875 141.875 -120.9296875 143.875 C-120.3521875 144.13796875 -119.7746875 144.4009375 -119.1796875 144.671875 C-116.81122806 145.9383429 -114.9831581 147.3982179 -112.9296875 149.125 C-95.20804172 163.03056545 -72.47381051 165.73773411 -50.63964844 163.65673828 C-34.56511128 161.49036887 -19.73890415 154.60621058 -9.4140625 141.84765625 C-8.67929687 140.87119141 -8.67929687 140.87119141 -7.9296875 139.875 C-7.48109375 139.29621094 -7.0325 138.71742188 -6.5703125 138.12109375 C-0.00936032 128.74541209 2.07268826 116.86193334 4.0703125 105.875 C-19.3596875 105.875 -42.7896875 105.875 -66.9296875 105.875 C-66.9296875 95.315 -66.9296875 84.755 -66.9296875 73.875 C-31.6196875 73.875 3.6903125 73.875 40.0703125 73.875 C40.0703125 115.15737569 38.67526263 144.84689972 10.0703125 173.875 C9.42578125 174.53242188 8.78125 175.18984375 8.1171875 175.8671875 C-13.986792 196.72181164 -44.80887528 200.70447115 -73.83886719 200.01123047 C-98.51073901 198.92379726 -121.09276728 189.56799294 -139.9296875 173.875 C-140.94095703 173.09189453 -140.94095703 173.09189453 -141.97265625 172.29296875 C-147.46987544 167.92789997 -151.66426973 162.40789956 -155.9296875 156.875 C-156.55101562 156.06933594 -157.17234375 155.26367188 -157.8125 154.43359375 C-171.78349836 135.41925293 -177.37226806 113.62847583 -177.3046875 90.3125 C-177.30414368 89.60601318 -177.30359985 88.89952637 -177.30303955 88.17163086 C-177.26347711 76.98147313 -176.44082851 66.5553886 -172.9296875 55.875 C-172.71538086 55.19099121 -172.50107422 54.50698242 -172.28027344 53.80224609 C-163.94347932 27.66936963 -144.06740154 4.40766922 -119.7578125 -8.37890625 C-82.21209157 -27.20708113 -34.29085994 -24.87230375 0 0 Z " fill="#040909" transform="translate(632.9296875,26.125)"></path><path d="M0 0 C6.23432744 1.98819514 12.28733959 4.2602614 18.32421875 6.78125 C19.20786102 7.14727829 20.0915033 7.51330658 21.00192261 7.89042664 C22.90558866 8.67943374 24.80866857 9.46985627 26.71121216 10.26156616 C29.7391224 11.52148009 32.76863996 12.77745632 35.79858398 14.0324707 C42.20046031 16.68493469 48.60035625 19.34215485 55 22 C62.21092771 24.99463628 69.42273986 27.98710893 76.6366272 30.97460938 C79.4686536 32.14859693 82.29918079 33.32614322 85.12963867 34.50390625 C94.13128185 38.23965942 103.1610644 41.88655306 112.26171875 45.375 C113.10319962 45.69909348 113.94468048 46.02318695 114.81166077 46.35710144 C128.49020992 51.54924926 142.52541803 54.94060826 157 57 C157.63212402 57.09498779 158.26424805 57.18997559 158.91552734 57.2878418 C215.84140775 64.80878549 265.75321833 40.9522326 316.80712891 19.59082031 C325.75331671 15.8477059 334.70115868 12.10862804 343.6546936 8.38311768 C345.4605921 7.63088789 347.26591631 6.87727784 349.07064819 6.12225342 C351.55358884 5.08350319 354.03827578 4.04904774 356.5234375 3.015625 C357.62452095 2.55311844 357.62452095 2.55311844 358.74784851 2.08126831 C363.77194064 0 363.77194064 0 366 0 C367.67257264 3.78908876 369.33705115 7.58167885 371 11.375 C371.47695313 12.45523438 371.95390625 13.53546875 372.4453125 14.6484375 C372.89648438 15.6796875 373.34765625 16.7109375 373.8125 17.7734375 C374.23144531 18.72653809 374.65039062 19.67963867 375.08203125 20.66162109 C376 23 376 23 376 25 C374.23184937 25.72981079 374.23184937 25.72981079 372.42797852 26.47436523 C351.23868446 35.22090854 330.0510348 43.97139511 308.875 52.75 C308.12960968 53.05888153 307.38421936 53.36776306 306.61624146 53.68600464 C288.7330542 61.09736085 270.86905516 68.55456035 253 76 C296.89 76.33 340.78 76.66 386 77 C386 85.58 386 94.16 386 103 C252.02 103 118.04 103 -20 103 C-20 94.42 -20 85.84 -20 77 C46.33 76.505 46.33 76.505 114 76 C101.79 71.05 89.58 66.1 77 61 C64.30456152 55.73165002 64.30456152 55.73165002 58.16818237 53.14450073 C53.77697503 51.29317672 49.38244917 49.44975212 44.98828125 47.60546875 C44.09407974 47.22997391 43.19987823 46.85447906 42.27857971 46.46760559 C30.05966453 41.34054322 17.81308217 36.27995984 5.56738281 31.21728516 C4.73523758 30.87295944 3.90309235 30.52863373 3.04573059 30.1738739 C1.49073577 29.53048417 -0.06451726 28.887718 -1.62007141 28.24568176 C-6.77516131 26.11241935 -6.77516131 26.11241935 -9 25 C-8.40414792 19.2306386 -6.23012403 14.38338464 -3.9375 9.125 C-3.56044922 8.24585937 -3.18339844 7.36671875 -2.79492188 6.4609375 C-1.8691366 4.30467813 -0.93624519 2.15172902 0 0 Z " fill="#92C0B2" transform="translate(20,119)"></path><path d="M0 0 C11.88 0 23.76 0 36 0 C38.27777344 8.08048828 38.27777344 8.08048828 40.6015625 16.32421875 C41.5767826 19.7832145 42.55202466 23.24220404 43.52734375 26.70117188 C45.06775541 32.16424751 46.60809563 37.6273432 48.14794922 43.09057617 C56.02714681 71.0585833 56.02714681 71.0585833 64 99 C66.21042476 95.68436286 67.2249878 92.44784296 68.35083008 88.67724609 C68.6903495 87.56175133 68.6903495 87.56175133 69.03672791 86.42372131 C69.78577295 83.9583803 70.52768464 81.49095324 71.26953125 79.0234375 C71.79236545 77.29712561 72.31562146 75.57094142 72.83927917 73.84487915 C74.22110052 69.28576224 75.59680864 64.72482198 76.97137451 60.16351318 C78.0798346 56.48872789 79.1924395 52.81520449 80.30533314 49.14175987 C85.2626718 32.7781594 90.19198768 16.40818312 95 0 C105.89 0 116.78 0 128 0 C138.12986469 32.9615739 148.12923305 65.95990871 158 99 C159.72332411 96.41501384 160.44735888 94.92343795 161.25880432 92.03939819 C161.48729065 91.23737473 161.71577698 90.43535126 161.95118713 89.60902405 C162.19489548 88.73306076 162.43860382 87.85709747 162.68969727 86.95458984 C162.95172943 86.02916885 163.2137616 85.10374786 163.48373413 84.15028381 C164.34947003 81.08851326 165.20781932 78.02471967 166.06640625 74.9609375 C166.66594133 72.83753986 167.26604131 70.71430165 167.86668396 68.59121704 C169.44731543 63.00002832 171.02214633 57.4072245 172.59521484 51.81390381 C175.11577783 42.85276799 177.64210141 33.89326745 180.17408562 24.93535233 C181.0594951 21.79792699 181.94061044 18.65931693 182.82142639 15.52059937 C183.36068181 13.60922581 183.90009662 11.69789722 184.43969727 9.78662109 C184.68542984 8.90660934 184.93116241 8.0265976 185.18434143 7.11991882 C186.88628272 1.11371728 186.88628272 1.11371728 188 0 C190.59359322 -0.08851529 193.16039691 -0.11525945 195.75390625 -0.09765625 C196.52935287 -0.0962413 197.3047995 -0.09482635 198.10374451 -0.09336853 C200.59003494 -0.08775345 203.0762366 -0.07519846 205.5625 -0.0625 C207.24413933 -0.05748694 208.92578006 -0.0529237 210.60742188 -0.04882812 C214.73831566 -0.03777913 218.86914276 -0.02050445 223 0 C221.51118825 7.26110552 219.46883811 14.24721472 217.23828125 21.3125 C216.85926163 22.52334259 216.480242 23.73418518 216.08973694 24.98171997 C215.05179338 28.29707484 214.00917397 31.61094213 212.96562958 34.92453766 C211.86397779 38.42527761 210.76652961 41.92733531 209.66845703 45.42919922 C207.29093449 53.00818603 204.90747214 60.58529661 202.52264404 68.1619873 C200.95969392 73.12757248 199.39801582 78.09355728 197.83642578 83.05957031 C194.68459279 93.08200232 191.53069387 103.10378298 188.375 113.125 C188.12102573 113.93153015 187.86705147 114.7380603 187.60538101 115.56903076 C186.1385166 120.22684062 184.67095329 124.88442938 183.20242119 129.54171371 C182.75546783 130.95935928 182.3086723 132.37705461 181.8620472 133.79480362 C181.24884787 135.74112201 180.63493796 137.68721649 180.02099609 139.63330078 C179.67716888 140.72377716 179.33334167 141.81425354 178.97909546 142.93777466 C178.01070879 145.96650712 177.00553434 148.98339698 176 152 C165.11 152 154.22 152 143 152 C140.57156899 145.92892248 138.27407791 140.08064567 136.39038086 133.86328125 C136.16052994 133.11710541 135.93067902 132.37092957 135.69386292 131.60214233 C134.94682892 129.17347689 134.20577202 126.74303436 133.46484375 124.3125 C132.94002296 122.60185851 132.41483419 120.89132989 131.88929749 119.1809082 C130.51400117 114.70122163 129.14382954 110.21998373 127.77471924 105.73840332 C126.38626457 101.19700162 124.99263964 96.6571873 123.59960938 92.1171875 C115.04546708 64.22510018 115.04546708 64.22510018 112 54 C106.61633968 70.77290796 101.28125737 87.56075622 95.98071289 104.36010742 C94.80345693 108.09116002 93.62541638 111.82196424 92.44726562 115.55273438 C91.67964213 117.98436068 90.91206244 120.41600081 90.14453125 122.84765625 C89.80170609 123.93345474 89.45888092 125.01925323 89.10566711 126.13795471 C86.38763642 134.75370041 83.6947404 143.37683073 81 152 C69.78 152 58.56 152 47 152 C36.0075075 117.04113363 25.01897947 82.08103425 14.05691147 47.11261368 C13.37899336 44.95023775 12.70094323 42.78790326 12.02285767 40.62557983 C10.9512011 37.20811891 9.87991866 33.79054092 8.80892754 30.3728714 C8.23716992 28.54854444 7.66510867 26.72431265 7.09303284 24.90008545 C6.40128699 22.69192208 5.71077388 20.48337204 5.02166748 18.27438354 C4.30077582 15.96396862 3.57654062 13.65459565 2.84991455 11.34597778 C2.29893097 9.58252518 2.29893097 9.58252518 1.73681641 7.78344727 C1.40356354 6.72158707 1.07031067 5.65972687 0.72695923 4.56568909 C0 2 0 2 0 0 Z " fill="#040909" transform="translate(935,70)"></path><path d="M0 0 C8.58 0 17.16 0 26 0 C26.02187378 3.63346436 26.02187378 3.63346436 26.04418945 7.34033203 C26.09456714 15.35114691 26.1611679 23.36176806 26.23571491 31.37239265 C26.28040797 36.22838806 26.3196665 41.08429977 26.34643555 45.94042969 C26.37247907 50.62845843 26.41288902 55.31616493 26.46318626 60.00399399 C26.47984786 61.7908718 26.49136655 63.57780534 26.49761391 65.36474991 C26.50726273 67.8712757 26.53533075 70.37697841 26.56762695 72.88330078 C26.56619186 73.61913895 26.56475677 74.35497711 26.5632782 75.1131134 C26.64842407 79.7974697 27.54440266 83.01263674 30 87 C32.93810905 89.60232515 35.16677533 90.25019085 39 90.0625 C42.29153888 89.80368948 43.08532961 88.9093119 45.41040039 86.43823242 C48.24471087 82.93461324 49.86246689 79.24888512 51.49609375 75.078125 C51.80660172 74.31216507 52.11710968 73.54620514 52.43702698 72.7570343 C53.4473285 70.25864168 54.4423505 67.75446156 55.4375 65.25 C56.13621005 63.5150761 56.83609404 61.78062456 57.53710938 60.04663086 C58.97815391 56.47992533 60.41424754 52.91128513 61.84716797 49.34130859 C64.87410176 41.81409711 67.97072653 34.31571648 71.06863403 26.81750488 C72.5483401 23.23486977 74.02392567 19.65053877 75.5 16.06640625 C76.3332943 14.04425475 77.16661106 12.0221125 78 10 C84.02173101 11.90146008 89.80311668 14.1019849 95.5625 16.6875 C96.28501953 17.00783203 97.00753906 17.32816406 97.75195312 17.65820312 C99.50293629 18.43512943 101.25171324 19.21702495 103 20 C101.04420949 26.12497587 98.82571219 32.07575769 96.33984375 38.00390625 C95.99332764 38.83708374 95.64681152 39.67026123 95.28979492 40.52868652 C94.55360403 42.29769929 93.81601637 44.06613134 93.07711792 45.83401489 C91.92627038 48.58938608 90.78098409 51.34701285 89.63696289 54.10522461 C86.3560597 62.00711086 83.06033176 69.90028907 79.65625 77.75 C79.18711182 78.84111084 78.71797363 79.93222168 78.23461914 81.05639648 C77.39985008 82.99099303 76.55356628 84.92068263 75.69311523 86.84399414 C73.12070146 92.82731814 71.87307849 97.83039043 73.625 104.3125 C75.76605918 106.94016354 77.82386312 107.86138489 81 109 C84.87219491 109.29786115 87.07537797 108.72634198 90.14254761 106.31690979 C96.82633719 100.17297439 103.29388626 93.83682838 109.6953125 87.40234375 C110.77939129 86.31639418 111.86369529 85.23066941 112.94821167 84.14515686 C115.76810601 81.32148922 118.58498145 78.49482942 121.40118408 75.66748047 C124.28903416 72.76930313 127.1798049 69.87404205 130.0703125 66.97851562 C135.71636299 61.32181962 141.35921945 55.66195112 147 50 C154.42597701 56.29593181 154.42597701 56.29593181 157.30859375 59.2109375 C158.08686523 59.99404297 158.08686523 59.99404297 158.88085938 60.79296875 C159.39455078 61.31503906 159.90824219 61.83710937 160.4375 62.375 C161.24864258 63.19291016 161.24864258 63.19291016 162.07617188 64.02734375 C163.38646723 65.34923464 164.69358284 66.67427618 166 68 C160.18624823 75.094737 153.68727286 81.51462816 147.2265625 88.01171875 C146.61319408 88.62916269 145.99982567 89.24660664 145.36787033 89.882761 C142.12612969 93.14525099 138.88120175 96.40453323 135.63378906 99.66137695 C132.29440661 103.0118537 128.96687549 106.37385198 125.64180946 109.73852825 C123.06787272 112.33866634 120.48503541 114.92982517 117.8997612 117.51868629 C116.66928675 118.75401054 115.44217279 119.99269215 114.21861649 121.234869 C112.50357725 122.97439427 110.77618527 124.70071 109.04541016 126.42456055 C108.55060654 126.93217422 108.05580292 127.4397879 107.54600525 127.96278381 C100.09704886 135.30441371 92.10642513 137.3125 81.84423828 137.3125 C72.973405 137.12489286 67.157791 133.78386015 59.8125 129.125 C40.53764788 116.97641363 17.54882351 112.61693971 -4.88671875 117.1315918 C-17.22462816 120.01224278 -27.86059426 125.05941223 -38.28125 132.23046875 C-47.14137595 137.99718865 -57.57282465 138.53454036 -67.8359375 136.4140625 C-79.90562368 132.26391804 -89.1747868 119.96328124 -98.0078125 111.08984375 C-99.22641318 109.86937308 -100.44523848 108.64912663 -101.66427612 107.42909241 C-104.8392692 104.25031986 -108.01124516 101.06855383 -111.18255615 97.8861084 C-114.43235176 94.62599922 -117.68505552 91.36879429 -120.9375 88.11132812 C-127.29448158 81.74369006 -133.64827271 75.37287893 -140 69 C-133.70406819 61.57402299 -133.70406819 61.57402299 -130.7890625 58.69140625 C-130.26699219 58.17255859 -129.74492187 57.65371094 -129.20703125 57.11914062 C-128.68496094 56.60544922 -128.16289062 56.09175781 -127.625 55.5625 C-127.07972656 55.02173828 -126.53445312 54.48097656 -125.97265625 53.92382812 C-124.65076536 52.61353277 -123.32572382 51.30641716 -122 50 C-118.03937861 51.59046968 -115.42852823 54.34251639 -112.51635742 57.35180664 C-111.71304741 58.16913521 -111.71304741 58.16913521 -110.89350891 59.00297546 C-109.73358221 60.18386832 -108.57584658 61.36691647 -107.42006493 62.55186653 C-105.58830397 64.42773434 -103.74865112 66.29550489 -101.90632629 68.16099548 C-96.66977619 73.46467831 -91.44148129 78.77627578 -86.23413086 84.10864258 C-83.04587523 87.37228373 -79.84309211 90.62104882 -76.63057899 93.86080742 C-75.41100953 95.09646334 -74.19701349 96.33764644 -72.98882103 97.58442879 C-71.29678861 99.32954972 -69.58687794 101.05512652 -67.87182617 102.77758789 C-67.37963593 103.29449188 -66.88744568 103.81139587 -66.38034058 104.34396362 C-62.7875088 107.89627373 -60.01307971 108.83305555 -55 109 C-50.8433906 107.72104326 -49.37222621 106.55269952 -46.9375 102.9375 C-44.36127451 95.795279 -49.83428186 86.597622 -52.625 80.00390625 C-53.14067284 78.76802261 -53.14067284 78.76802261 -53.66676331 77.50717163 C-54.77344311 74.85708304 -55.88673943 72.20982986 -57 69.5625 C-58.14884788 66.81508441 -59.2958751 64.06691353 -60.44276428 61.31867981 C-61.20600004 59.48999029 -61.96978174 57.66152854 -62.7341156 55.83329773 C-66.05499927 47.88607211 -69.32182474 39.91771779 -72.5625 31.9375 C-73.02076172 30.80965088 -73.47902344 29.68180176 -73.95117188 28.51977539 C-74.96860341 26.01364926 -75.98502864 23.50712326 -77 21 C-74.19983784 18.74243955 -71.57965928 17.26512318 -68.234375 15.95703125 C-66.90019531 15.43012695 -66.90019531 15.43012695 -65.5390625 14.89257812 C-64.61867188 14.53615234 -63.69828125 14.17972656 -62.75 13.8125 C-61.81414062 13.44447266 -60.87828125 13.07644531 -59.9140625 12.69726562 C-57.61146484 11.79267369 -55.3068011 10.89380599 -53 10 C-50.93675605 12.06324395 -50.29022209 13.37600666 -49.20336914 16.03710938 C-48.85826294 16.87483383 -48.51315674 17.71255829 -48.15759277 18.57566833 C-47.60198669 19.94586876 -47.60198669 19.94586876 -47.03515625 21.34375 C-46.64565796 22.29270645 -46.25615967 23.2416629 -45.8548584 24.21937561 C-45.01969381 26.25541575 -44.18673173 28.29236044 -43.35574341 30.33010864 C-42.06323854 33.49818975 -40.76406669 36.66345262 -39.46264648 39.82788086 C-37.75213846 43.98729909 -36.04305558 48.14729472 -34.3359375 52.30810547 C-31.42605827 59.39909757 -28.51306409 66.48831312 -25.5625 73.5625 C-24.93710327 75.09003906 -24.93710327 75.09003906 -24.29907227 76.6484375 C-21.29324592 84.60879222 -21.29324592 84.60879222 -15.03515625 89.8125 C-11.58975556 90.13998363 -9.4574266 90.18297064 -6.1875 88.875 C-2.50819117 85.72130672 -1.12298382 83.14564482 -0.60127258 78.28569031 C-0.57500229 76.82566322 -0.56482828 75.36529002 -0.56762695 73.9050293 C-0.5574353 73.10450638 -0.54724365 72.30398346 -0.53674316 71.47920227 C-0.50664895 68.84413624 -0.4973528 66.20943395 -0.48828125 63.57421875 C-0.4714319 61.74289241 -0.45328131 59.91157761 -0.43388367 58.08027649 C-0.38640536 53.26841846 -0.35658195 48.45660725 -0.33044434 43.64459229 C-0.3006279 38.73106642 -0.25410127 33.81770185 -0.20898438 28.90429688 C-0.12297576 19.26959711 -0.05716457 9.63491412 0 0 Z " fill="#92C0B2" transform="translate(190,6)"></path><path d="M0 0 C0.33 28.38 0.66 56.76 1 86 C2.98 83.69 4.96 81.38 7 79 C20.18592451 67.54054678 37.04306335 64.92721421 54 66 C67.96814228 67.677397 81.54469692 73.29908813 91 84 C101.36483006 97.43433349 105.35725005 112.98063679 105.22705078 129.70385742 C105.22734283 130.71008148 105.22763489 131.71630554 105.22793579 132.75302124 C105.22655647 136.03726204 105.21106181 139.3212682 105.1953125 142.60546875 C105.19157739 144.89903133 105.18873277 147.19259552 105.18673706 149.48616028 C105.17913981 155.49155159 105.15952523 161.49684453 105.1373291 167.50219727 C105.11678609 173.64272735 105.10771733 179.7832735 105.09765625 185.92382812 C105.07627536 197.94926869 105.04112542 209.97461073 105 222 C93.78 222 82.56 222 71 222 C70.9906543 219.05860107 70.98130859 216.11720215 70.97167969 213.08666992 C70.93782671 203.33963473 70.88223146 193.59280941 70.81609726 183.8459425 C70.77668369 177.93968322 70.74446508 172.03357167 70.72900391 166.12719727 C70.71379719 160.42115837 70.67927999 154.7155258 70.63169098 149.00966835 C70.61691861 146.83895727 70.60896138 144.66818817 70.60811615 142.49742699 C70.93886183 123.08069694 70.93886183 123.08069694 61.84375 106.5 C52.15885241 98.62076128 40.94234107 98.02414492 29 99 C20.76051399 100.55667786 14.37408322 104.59083071 9 111 C0.2542447 124.45645182 0.67988333 138.86697902 0.5859375 154.32421875 C0.56719875 156.28148693 0.54762338 158.23874727 0.5272522 160.19599915 C0.47621074 165.31354111 0.4364363 170.43110918 0.39910889 175.54876709 C0.35889254 180.78452871 0.30788116 186.02018434 0.2578125 191.25585938 C0.16138507 201.50383872 0.07787483 211.75186287 0 222 C-10.89 222 -21.78 222 -33 222 C-33 151.71 -33 81.42 -33 9 C-3 0 -3 0 0 0 Z " fill="#040909" transform="translate(1306,0)"></path><path d="M0 0 C24.43243368 -0.57319493 45.04306548 6.92264078 63.04833984 23.66650391 C77.29505965 37.7197668 84.76394151 57.44732012 85.58984375 77.20703125 C85.40082888 101.09378512 78.07707238 121.22641447 61.21484375 138.56640625 C43.77679381 155.07027494 23.21604612 160.87678353 -0.21875 160.3984375 C-22.40971263 159.58740539 -40.77736653 149.79550742 -56.05859375 133.94921875 C-71.3312119 116.04770731 -77.25300421 94.40771602 -75.44140625 71.15625 C-72.9287748 48.52635641 -61.72259197 30.4071204 -44.62890625 15.84375 C-31.71655511 6.03199502 -16.11229073 0.73154555 0 0 Z M-30.81640625 48.46875 C-40.80684666 60.50641181 -42.72069766 74.03248035 -41.44140625 89.15625 C-39.4208684 101.17717137 -32.96553549 110.98137374 -23.57421875 118.66015625 C-14.85190026 124.77855915 -5.64457905 127.55342377 4.93359375 127.46875 C6.04939819 127.46029053 6.04939819 127.46029053 7.18774414 127.45166016 C19.14500086 127.18863436 29.81575967 122.41337107 38.55859375 114.15625 C47.97897321 103.3177489 52.11581696 91.52412208 51.8046875 77.23046875 C50.75926571 64.17099342 45.54253863 53.10591587 35.97265625 44.16015625 C15.93765765 27.52916227 -12.88115595 29.4942609 -30.81640625 48.46875 Z " fill="#040909" transform="translate(850.44140625,65.84375)"></path><path d="M0 0 C0 13.86 0 27.72 0 42 C12.54 42 25.08 42 38 42 C38 52.89 38 63.78 38 75 C25.46 75 12.92 75 0 75 C0.09094246 88.28824673 0.09094246 88.28824673 0.20898438 101.57617188 C0.26317949 107.00086822 0.3142943 112.4254641 0.34643555 117.8503418 C0.37256774 122.22716917 0.41303927 126.60365652 0.46318626 130.98027229 C0.47978823 132.64465141 0.49134384 134.30908925 0.49761391 135.97353935 C0.4073715 148.32373101 0.4073715 148.32373101 4 160 C10.43342983 164.06039493 18.71240636 163.53791303 26.0625 163.6875 C30.001875 163.790625 33.94125 163.89375 38 164 C38 173.9 38 183.8 38 194 C32.26903475 195.43274131 26.55949581 195.22440163 20.68554688 195.24023438 C18.53474818 195.24984474 16.38494581 195.28084486 14.234375 195.3125 C0.69800528 195.41771839 -11.67994515 193.56949328 -22.03515625 184.1484375 C-32.44424584 173.05424859 -33.30470791 159.65365084 -33.22705078 145.11694336 C-33.22648575 143.62795011 -33.22680502 142.13895631 -33.22793579 140.64996338 C-33.22850672 136.63197988 -33.21679475 132.61411718 -33.20278788 128.5961616 C-33.19023696 124.38813445 -33.18910659 120.18010414 -33.18673706 115.97206116 C-33.18053506 108.01436649 -33.16414166 100.05672715 -33.14403808 92.09905678 C-33.12163912 83.03494125 -33.11067562 73.970823 -33.10064721 64.90668666 C-33.07977423 46.27109314 -33.04462328 27.63555103 -33 9 C-28.78406151 7.71296925 -24.56652112 6.4313732 -20.34741211 5.15478516 C-18.91238895 4.7197527 -17.47781396 4.28323904 -16.04370117 3.84521484 C-13.98211882 3.2158221 -11.91898282 2.59177587 -9.85546875 1.96875 C-8.61434326 1.59169922 -7.37321777 1.21464844 -6.09448242 0.82617188 C-3 0 -3 0 0 0 Z " fill="#040909" transform="translate(1212,28)"></path><path d="M0 0 C0 12.21 0 24.42 0 37 C-4.62 37.33 -9.24 37.66 -14 38 C-25.03010445 41.15145841 -34.90872517 45.74326462 -40.78125 55.984375 C-45.31349763 67.19878259 -45.47146399 77.74903147 -45.51171875 89.66796875 C-45.52859077 91.55797981 -45.54674435 93.44797983 -45.56611633 95.33796692 C-45.61334868 100.27796983 -45.64333043 105.21792793 -45.66955566 110.15808105 C-45.69949717 115.21289923 -45.74598037 120.26756338 -45.79101562 125.32226562 C-45.87674388 135.2147803 -45.9426922 145.10727982 -46 155 C-57.22 155 -68.44 155 -80 155 C-80 104.84 -80 54.68 -80 3 C-68.78 3 -57.56 3 -46 3 C-45.67 9.6 -45.34 16.2 -45 23 C-43.989375 21.63875 -42.97875 20.2775 -41.9375 18.875 C-31.30994851 5.3142443 -17.0183786 0 0 0 Z " fill="#040909" transform="translate(772,67)"></path></svg>